<svg width="820" height="640" viewBox="0 0 820 640" fill="none" xmlns="http://www.w3.org/2000/svg">
  <defs>
    <radialGradient id="glow" cx="0" cy="0" r="1" gradientUnits="userSpaceOnUse" gradientTransform="translate(405 320) rotate(90) scale(310 345)">
      <stop offset="0.42" stop-color="#F2F6FF" stop-opacity="0.94"/>
      <stop offset="0.78" stop-color="#EEF2FF" stop-opacity="0.62"/>
      <stop offset="1" stop-color="#DCE6FF" stop-opacity="0"/>
    </radialGradient>
    <radialGradient id="planet" cx="0" cy="0" r="1" gradientUnits="userSpaceOnUse" gradientTransform="translate(350 246) rotate(53) scale(302)">
      <stop offset="0" stop-color="#E7FFFB"/>
      <stop offset="0.42" stop-color="#20BEC8"/>
      <stop offset="0.72" stop-color="#3C9CEB"/>
      <stop offset="1" stop-color="#EEF4FF"/>
    </radialGradient>
    <radialGradient id="highlight" cx="0" cy="0" r="1" gradientUnits="userSpaceOnUse" gradientTransform="translate(286 186) rotate(90) scale(150)">
      <stop offset="0" stop-color="#FFFFFF" stop-opacity="0.72"/>
      <stop offset="1" stop-color="#FFFFFF" stop-opacity="0"/>
    </radialGradient>
    <filter id="softNoise" x="80" y="12" width="636" height="612" filterUnits="userSpaceOnUse" color-interpolation-filters="sRGB">
      <feTurbulence type="fractalNoise" baseFrequency="0.95" numOctaves="2" seed="9" result="noise"/>
      <feColorMatrix in="noise" type="matrix" values="0 0 0 0 0.68 0 0 0 0 0.74 0 0 0 0 1 0 0 0 0.28 0"/>
      <feComposite operator="in" in2="SourceGraphic"/>
    </filter>
  </defs>

  <rect x="96" y="20" width="606" height="592" rx="210" fill="url(#glow)"/>
  <rect x="96" y="20" width="606" height="592" rx="210" fill="#E9EEFF" opacity="0.22" filter="url(#softNoise)"/>

  <path d="M17 414C113 281 264 216 470 218C650 219 787 266 806 338C826 414 695 482 479 526C246 574 44 553 19 479C10 453 8 434 17 414Z" stroke="#2E2E31" stroke-width="6" stroke-linecap="round"/>

  <circle cx="405" cy="315" r="210" fill="url(#planet)"/>
  <circle cx="405" cy="315" r="210" fill="url(#highlight)"/>

  <path d="M17 414C113 281 264 216 470 218C650 219 787 266 806 338C826 414 695 482 479 526C246 574 44 553 19 479C10 453 8 434 17 414Z" stroke="#2E2E31" stroke-width="6" stroke-linecap="round"/>
  <path d="M244 529C385 522 521 496 638 456" stroke="#2E2E31" stroke-width="6" stroke-linecap="round"/>

  <circle cx="164" cy="529" r="10" fill="#2E2E31"/>
  <circle cx="662" cy="185" r="12" fill="#F8FAFF" stroke="#2E2E31" stroke-width="7"/>

  <circle cx="586" cy="449" r="42" fill="#050505"/>
  <path d="M563 450C563 442 568 437 575 437C582 437 586 442 586 450" stroke="white" stroke-width="7" stroke-linecap="round"/>
  <path d="M593 450C593 442 598 437 605 437C612 437 616 442 616 450" stroke="white" stroke-width="7" stroke-linecap="round"/>

  <g stroke="#2E2E31" stroke-width="6" stroke-linecap="round" stroke-linejoin="round">
    <path d="M608 40C617 73 626 82 660 92C626 101 617 111 608 144C599 111 589 101 556 92C589 82 599 73 608 40Z"/>
    <path d="M714 392C721 418 729 426 754 433C729 440 721 448 714 474C707 448 699 440 674 433C699 426 707 418 714 392Z"/>
    <path d="M48 526C54 548 60 554 82 560C60 566 54 572 48 594C42 572 36 566 14 560C36 554 42 548 48 526Z"/>
    <path d="M32 142C39 166 45 173 70 180C45 187 39 194 32 218C25 194 18 187 -6 180C18 173 25 166 32 142Z"/>
  </g>
</svg>
