<svg width="30" height="30" viewBox="0 0 30 30" fill="none" xmlns="http://www.w3.org/2000/svg">
<g clip-path="url(#clip0_2819_14)">
<path d="M26.0462 5.11298C26.54 5.13918 26.9238 5.54892 26.9238 6.04334V22.1332C26.9238 22.6818 26.4549 23.1129 25.9077 23.0747C25.5816 23.0518 25.2439 23.0309 25.0069 23.0228C21.3918 22.9006 18.5191 23.5439 16.3888 24.9524C16.178 25.0918 15.901 25.3118 15.65 25.5208C15.2764 25.8318 14.7281 25.8268 14.36 25.5094C14.1238 25.3056 13.8661 25.0934 13.6698 24.9574C11.5643 23.5003 8.73879 22.8479 5.19311 23.0004C4.9604 23.0104 4.6304 23.0345 4.30992 23.0607C3.75826 23.1059 3.28125 22.6731 3.28125 22.1197V6.04216C3.28125 5.54822 3.66437 5.13868 4.15758 5.11216C4.50114 5.09368 4.87286 5.07636 5.12596 5.07206C9.51088 4.99773 12.8022 6.04407 15 8.21107C17.2109 6.04041 20.5641 4.99419 25.0592 5.07247C25.317 5.07695 25.6967 5.09444 26.0462 5.11298ZM5.23948 6.94512L5.15625 6.9465V17.2753C5.53005 17.2884 5.92729 17.3086 6.34377 17.3375C7.75945 17.4357 9.16588 17.6161 10.488 17.9004C12.3027 18.2909 13.8273 18.8476 14.9834 19.617L14.9966 19.6258L15.0527 19.5876C17.2397 18.1128 20.5696 17.3552 25.0488 17.2664V6.94723L24.9215 6.94518C20.9981 6.89169 18.1734 7.76684 16.3759 9.48859L16.3135 9.549L15.6554 10.1952C15.2902 10.5538 14.7048 10.5532 14.3404 10.1938L13.6835 9.54619C11.8971 7.78468 9.10878 6.89113 5.23948 6.94512ZM25.0488 19.1417C20.5091 19.2362 17.3569 20.0493 15.6013 21.5169C15.2524 21.8086 14.7444 21.8079 14.3964 21.515C13.4703 20.7359 11.9814 20.1397 10.0936 19.7335C8.86796 19.4698 7.54705 19.3005 6.21401 19.2081C5.86176 19.1835 5.50912 19.1646 5.15625 19.1515V21.1257L5.28006 21.1207C9.28661 20.9754 12.5515 21.7896 15.0149 23.6133L15.0202 23.6172L15.1135 23.551C17.6134 21.7998 20.9348 21.0163 25.028 21.1478L25.0488 21.1485V19.1417ZM9.24343 10.2552L13.092 11.2864C12.824 12.2867 11.7959 12.8803 10.7956 12.6123L6.94702 11.581C7.21506 10.5807 8.24317 9.98716 9.24343 10.2552ZM22.7728 9.7699L18.9242 10.8011C17.924 11.0692 17.3303 12.0973 17.5983 13.0975L21.4469 12.0663C22.4471 11.7983 23.0408 10.7701 22.7728 9.76987V9.7699ZM9.24343 13.7708L13.092 14.8021C12.824 15.8023 11.7959 16.3959 10.7956 16.1278L6.94702 15.0967C7.21506 14.0964 8.24317 13.5028 9.24343 13.7708ZM22.7728 13.2855L18.9242 14.3167C17.924 14.5848 17.3303 15.6129 17.5983 16.6131L21.4469 15.5818C22.4471 15.3139 23.0408 14.2857 22.7728 13.2855V13.2855Z" fill="black"/>
</g>
<defs>
<clipPath id="clip0_2819_14">
<rect width="30" height="30" fill="white"/>
</clipPath>
</defs>
</svg>
