<svg width="18" height="18" viewBox="0 0 18 18" fill="none" xmlns="http://www.w3.org/2000/svg">
<g clip-path="url(#clip0_2819_88)">
<g clip-path="url(#clip1_2819_88)">
<path d="M8.98905 16.2544C8.27993 16.4105 6.58122 16.3688 5.86198 16.1297C5.14243 15.8902 4.50689 15.4947 3.95413 14.9432C3.39094 14.4024 3.01293 13.7757 2.82009 13.0629C2.62694 12.3501 2.60885 11.645 2.76521 10.9478C3.48475 10.7918 4.20154 10.8102 4.91587 11.0027C5.6302 11.1953 6.26851 11.5619 6.83169 12.1033C7.72216 12.9924 9.29273 14.8008 8.98905 16.2544ZM8.98905 16.2544L9.44345 16.3014C9.86842 16.3218 10.2943 16.314 10.7182 16.2781C11.1435 16.2427 11.5648 16.1694 11.977 16.0592C12.3765 15.9528 12.7642 15.8065 13.1344 15.6226C13.4869 15.4491 13.8091 15.2198 14.0885 14.9435C14.6409 14.4027 15.0134 13.7754 15.2066 13.0629C15.3994 12.3501 15.4178 11.6453 15.2614 10.9478C14.8962 10.8745 14.5218 10.8536 14.1507 10.8856C13.7621 10.9175 13.3788 10.9961 13.009 11.1195C12.6297 11.2464 12.2653 11.4139 11.9222 11.6193C11.5834 11.8192 11.2707 12.0603 10.9914 12.3373C10.6513 12.6654 10.3472 13.0291 10.0845 13.4219C9.83032 13.7985 9.11849 15.19 8.98905 15.6226V10.4487M8.98905 16.2544V10.4487M8.98905 10.4487C8.39959 10.3907 7.37376 10.2058 6.84764 9.93368C6.44099 9.72582 6.0647 9.46331 5.72923 9.15343C5.3941 8.84565 5.10223 8.49387 4.86161 8.10768C4.6196 7.71812 4.43022 7.29824 4.29842 6.85898C4.16176 6.40342 4.09326 5.93014 4.09516 5.45453C4.09516 4.79906 4.22545 4.16444 4.48605 3.55067C4.97332 3.67002 5.43985 3.86205 5.86995 4.12029C6.29211 4.37476 6.67013 4.6844 7.00399 5.04862C7.09781 4.34134 7.32958 3.69353 7.69993 3.10551C8.06294 2.52526 8.53875 2.0238 9.09916 1.63086C9.67845 2.02148 10.1666 2.53254 10.5303 3.12912C10.9 3.73174 11.1322 4.40851 11.2103 5.11116C11.5458 4.74562 11.93 4.4279 12.352 4.16689C12.7826 3.90046 13.2522 3.70309 13.7439 3.58194C13.9842 4.17699 14.1064 4.8131 14.1038 5.45484C14.1038 5.93311 14.0385 6.39604 13.9082 6.84365C13.781 7.28447 13.5915 7.70486 13.3453 8.09205C13.1013 8.47579 12.8097 8.82707 12.4774 9.13749C12.1456 9.44848 11.7717 9.71124 11.3666 9.91804V9.93337C11.0748 10.0793 10.7749 10.1964 10.4677 10.2847C10.1602 10.3736 9.32261 10.428 8.98905 10.4487Z" stroke="black" stroke-width="1.2"/>
</g>
</g>
<defs>
<clipPath id="clip0_2819_88">
<rect width="17.9836" height="17.9836" fill="white"/>
</clipPath>
<clipPath id="clip1_2819_88">
<rect width="16" height="16" fill="white" transform="translate(1.01562 0.992188)"/>
</clipPath>
</defs>
</svg>
