<svg width="18" height="18" viewBox="0 0 18 18" fill="none" xmlns="http://www.w3.org/2000/svg">
<path d="M9.00248 0.267578C5.88097 0.267578 3.30469 2.8501 3.30469 6.02441C3.30469 7.9599 4.06633 9.5188 5.58508 10.5592V12.4199C5.58508 12.6319 5.70991 12.8343 5.86479 12.978C6.00474 13.1079 6.20601 13.1793 6.39499 13.1793C6.41518 13.1793 6.44452 13.1784 6.46479 13.1768L11.6876 12.7562C12.0797 12.7244 12.4194 12.395 12.4194 11.9993V10.5718C13.7483 9.6083 14.6966 7.94227 14.6966 6.02438C14.6966 2.8501 12.124 0.267578 9.00248 0.267578ZM11.2721 9.47021C11.026 9.60212 10.9007 9.8598 10.9007 10.1404V11.2987L7.10382 11.5968V10.1409C7.10382 9.87076 6.99337 9.62103 6.76146 9.48493C5.45427 8.71788 4.83497 7.58595 4.83497 6.02438C4.83497 3.6875 6.70532 1.78631 8.99444 1.78631C11.2836 1.78631 13.1641 3.68752 13.1641 6.02438C13.1641 7.54092 12.4682 8.82912 11.2721 9.47021ZM12.3513 14.3716C12.3815 14.79 12.069 15.1537 11.6532 15.184L6.46809 15.563C6.44948 15.5644 6.43096 15.565 6.41253 15.565C6.02056 15.565 5.68943 15.2602 5.66058 14.8607C5.63035 14.4423 5.94288 14.0786 6.3586 14.0483L11.5438 13.6693C11.9586 13.6386 12.3212 13.9533 12.3513 14.3716ZM10.6993 16.7697C10.7313 17.1878 10.4203 17.553 10.0047 17.5851L8.12315 17.7309C8.10345 17.7323 8.08383 17.7331 8.06438 17.7331C7.67379 17.7331 7.34311 17.4303 7.31261 17.032C7.28064 16.6139 7.59161 16.2488 8.00727 16.2166L9.88875 16.0709C10.305 16.0405 10.6672 16.3515 10.6993 16.7697ZM12.0283 6.01032C11.9951 6.35358 11.7077 6.61034 11.3718 6.61034C11.3504 6.61034 11.3287 6.60924 11.3069 6.60712C10.9438 6.57153 10.6783 6.24662 10.7137 5.88129C10.819 4.79462 9.87024 4.40881 9.7618 4.3684C9.4219 4.24177 9.2439 3.86228 9.36663 3.5193C9.48935 3.17624 9.86086 2.99576 10.2029 3.11578C10.9073 3.36336 12.1954 4.28692 12.0283 6.01032Z" fill="black"/>
</svg>
