<svg width="18" height="18" viewBox="0 0 18 18" fill="none" xmlns="http://www.w3.org/2000/svg">
<g clip-path="url(#clip0_2819_66)">
<path d="M14.9675 8.24784C14.7419 8.24589 14.5172 8.27735 14.3008 8.34118V7.58117C14.3008 7.05074 14.0901 6.54203 13.715 6.16696C13.3399 5.79189 12.8312 5.58117 12.3008 5.58117H3.49414C2.96371 5.58117 2.455 5.79189 2.07993 6.16696C1.70485 6.54203 1.49414 7.05074 1.49414 7.58117V11.4145C1.49414 12.829 2.05604 14.1856 3.05624 15.1857C4.05643 16.1859 5.41299 16.7478 6.82747 16.7478H8.99414C10.1747 16.7455 11.3211 16.3515 12.2537 15.6276C13.1863 14.9038 13.8523 13.8909 14.1475 12.7478C14.4081 12.8538 14.6862 12.9103 14.9675 12.9145C15.5863 12.9145 16.1798 12.6687 16.6174 12.2311C17.055 11.7935 17.3008 11.2 17.3008 10.5812C17.3008 9.96234 17.055 9.36884 16.6174 8.93126C16.1798 8.49367 15.5863 8.24784 14.9675 8.24784ZM12.9675 11.4145C12.9675 12.4754 12.546 13.4928 11.7959 14.2429C11.0458 14.9931 10.0283 15.4145 8.96747 15.4145H6.82747C5.76661 15.4145 4.74919 14.9931 3.99905 14.2429C3.2489 13.4928 2.82747 12.4754 2.82747 11.4145V7.58117C2.82747 7.40436 2.89771 7.2348 3.02274 7.10977C3.14776 6.98475 3.31733 6.91451 3.49414 6.91451H12.3275C12.5043 6.91451 12.6739 6.98475 12.7989 7.10977C12.9239 7.2348 12.9941 7.40436 12.9941 7.58117L12.9675 11.4145ZM14.9675 11.5812C14.7562 11.5817 14.5504 11.5138 14.3808 11.3878H14.3275V9.80118H14.3741C14.4999 9.70044 14.6482 9.63159 14.8063 9.60048C14.9644 9.56938 15.1277 9.57695 15.2822 9.62255C15.4368 9.66814 15.578 9.75041 15.694 9.86235C15.8099 9.97429 15.897 10.1126 15.948 10.2655C15.9989 10.4183 16.0122 10.5812 15.9866 10.7403C15.9611 10.8995 15.8974 11.05 15.8011 11.1792C15.7048 11.3084 15.5787 11.4125 15.4336 11.4824C15.2884 11.5524 15.1285 11.5863 14.9675 11.5812ZM4.68747 3.93495L4.56081 4.12829C4.51199 4.20131 4.47809 4.28327 4.46105 4.36944C4.444 4.45562 4.44416 4.54431 4.46151 4.63042C4.47886 4.71654 4.51305 4.79837 4.56212 4.87123C4.6112 4.94408 4.67419 5.00652 4.74747 5.05495C4.85595 5.12785 4.98345 5.16727 5.11414 5.16829C5.22395 5.16772 5.33191 5.14004 5.42844 5.0877C5.52497 5.03536 5.60708 4.95999 5.66747 4.86829L5.79414 4.67495C5.99235 4.3678 6.0799 4.00225 6.04233 3.63863C6.00475 3.27501 5.84431 2.93508 5.58747 2.67495C5.52542 2.62408 5.48578 2.55091 5.47706 2.47114C5.46833 2.39138 5.49122 2.31137 5.54081 2.24829L5.68747 2.00162C5.77402 1.84974 5.79745 1.66994 5.75272 1.50095C5.70798 1.33196 5.59866 1.1873 5.4483 1.09813C5.29794 1.00897 5.11857 0.982424 4.94883 1.02423C4.7791 1.06603 4.63257 1.17283 4.54081 1.32162L4.39414 1.58162C4.20712 1.89453 4.12922 2.26065 4.17266 2.6226C4.21609 2.98454 4.3784 3.32184 4.63414 3.58162C4.74303 3.66651 4.76614 3.82162 4.68747 3.93495ZM7.48081 3.93495L7.35414 4.12829C7.28632 4.22863 7.24711 4.34555 7.24073 4.46649C7.23435 4.58744 7.26103 4.70784 7.31792 4.81476C7.37481 4.92168 7.45975 5.01108 7.56362 5.07337C7.66749 5.13566 7.78636 5.16847 7.90747 5.16829C8.01728 5.16772 8.12524 5.14004 8.22177 5.0877C8.31831 5.03536 8.40042 4.95999 8.46081 4.86829L8.58747 4.67495C8.78569 4.3678 8.87323 4.00225 8.83566 3.63863C8.79809 3.27501 8.63764 2.93508 8.38081 2.67495C8.31917 2.62406 8.27932 2.55153 8.2694 2.47221C8.25949 2.3929 8.28026 2.31279 8.32747 2.24829L8.48081 2.00162C8.56736 1.84974 8.59079 1.66994 8.54605 1.50095C8.50132 1.33196 8.39199 1.1873 8.24163 1.09813C8.09127 1.00897 7.91191 0.982424 7.74217 1.02423C7.57243 1.06603 7.4259 1.17283 7.33414 1.32162L7.18747 1.58162C7.00297 1.89664 6.92839 2.26405 6.97546 2.62608C7.02252 2.98811 7.18856 3.32424 7.44747 3.58162C7.54392 3.67495 7.55814 3.82517 7.48081 3.93495ZM10.2741 3.93495L10.1475 4.12829C10.0797 4.22863 10.0404 4.34555 10.0341 4.46649C10.0277 4.58744 10.0544 4.70784 10.1113 4.81476C10.1681 4.92168 10.2531 5.01108 10.357 5.07337C10.4608 5.13566 10.5797 5.16847 10.7008 5.16829C10.8106 5.16772 10.9186 5.14004 11.0151 5.0877C11.1116 5.03536 11.1937 4.95999 11.2541 4.86829L11.3808 4.67495C11.579 4.3678 11.6666 4.00225 11.629 3.63863C11.5914 3.27501 11.431 2.93508 11.1741 2.67495C11.1125 2.62406 11.0727 2.55153 11.0627 2.47221C11.0528 2.3929 11.0736 2.31279 11.1208 2.24829L11.3008 2.00829C11.3444 1.9314 11.3722 1.84662 11.3827 1.75889C11.3932 1.67115 11.3861 1.5822 11.3619 1.49722C11.3377 1.41223 11.2969 1.33291 11.2417 1.26385C11.1866 1.19479 11.1183 1.13738 11.0408 1.09495C10.8896 1.00423 10.7085 0.977146 10.5373 1.01963C10.3661 1.06211 10.2188 1.1707 10.1275 1.32162L9.96747 1.58162C9.78326 1.89627 9.70823 2.26298 9.75405 2.6247C9.79986 2.98641 9.96396 3.32284 10.2208 3.58162C10.2706 3.62431 10.3034 3.68349 10.3132 3.74836C10.323 3.81323 10.3091 3.87946 10.2741 3.93495Z" fill="black"/>
</g>
<defs>
<clipPath id="clip0_2819_66">
<rect width="16" height="16" fill="white" transform="translate(1.48828 0.992188)"/>
</clipPath>
</defs>
</svg>
